# GonkSkate original synthetic courtyard. Coordinates in inches; Y up.
v -3600 120 -6000
v -3600 120 6000
v 3600 120 -6000
v 3600 120 -6000
v -3600 120 6000
v 3600 120 6000
v -600 120 600
v -600 192 1000
v -360 120 600
v -360 120 600
v -600 192 1000
v -360 192 1000
v -600 192 1000
v -600 192 1200
v -360 192 1000
v -360 192 1000
v -600 192 1200
v -360 192 1200
v -600 192 1200
v -600 120 1600
v -360 192 1200
v -360 192 1200
v -600 120 1600
v -360 120 1600
f 1 2 3
f 4 5 6
f 7 8 9
f 10 11 12
f 13 14 15
f 16 17 18
f 19 20 21
f 22 23 24
